<svg xmlns="http://www.w3.org/2000/svg" width="57.216" height="45" viewBox="0 0 57.216 45">
  <g id="Layer_2" data-name="Layer 2" transform="translate(0 -0.028)">
    <g id="Layer_1" data-name="Layer 1" transform="translate(0 0.028)">
      <g id="Group_253" data-name="Group 253" transform="translate(0 0)">
        <path id="Path_422" data-name="Path 422" d="M11.881,269.121l-.46-.067-3.143-.459-.46-.067a1.2,1.2,0,0,0-1.363,1.016l-.5,3.407a1.2,1.2,0,0,0,1.016,1.363l4.063.593A1.2,1.2,0,0,0,12.4,273.89l.5-3.407A1.2,1.2,0,0,0,11.881,269.121ZM6.364,273.01l.5-3.407a.784.784,0,0,1,.268-.483l.118.042a.971.971,0,0,0-.077.258l-.385,2.636a.968.968,0,0,0,.067.518l-.464.775A.785.785,0,0,1,6.364,273.01ZM11.1,274.5l-4.063-.593a.785.785,0,0,1-.393-.177l.476-.795a.968.968,0,0,0,.5.227l3.143.459a.968.968,0,0,0,.451-.041l.229.9A.786.786,0,0,1,11.1,274.5Zm-.282-1.285-3.143-.459a.566.566,0,0,1-.478-.641l.385-2.636A.566.566,0,0,1,8.218,269l3.143.459a.566.566,0,0,1,.478.641l-.385,2.636A.566.566,0,0,1,10.813,273.215Zm1.677-2.791-.5,3.408a.786.786,0,0,1-.195.414l-.227-.889a.97.97,0,0,0,.289-.56l.385-2.636a.963.963,0,0,0,0-.269l.126-.007A.784.784,0,0,1,12.49,270.424Z" transform="translate(-5.106 -230.637)" fill="#20588f"/>
        <path id="Path_423" data-name="Path 423" d="M25.446,277.641a.243.243,0,0,0-.277.207l-.186,1.274a.526.526,0,0,1-.2.363.673.673,0,0,1-.833-.122.524.524,0,0,1-.09-.406l.186-1.275a.243.243,0,0,0-.207-.277.229.229,0,0,0-.18.046.238.238,0,0,0-.094.161l-.177,1.213a1.146,1.146,0,0,0,.014.435.953.953,0,0,0,.166.356.937.937,0,0,0,.3.256,1.212,1.212,0,0,0,.415.134,1.225,1.225,0,0,0,.438-.01.935.935,0,0,0,.361-.159.952.952,0,0,0,.26-.294,1.145,1.145,0,0,0,.138-.413l.177-1.213a.243.243,0,0,0-.207-.277Z" transform="translate(-20.074 -238.272)" fill="#20588f"/>
        <path id="Path_424" data-name="Path 424" d="M77.377,276.486a.234.234,0,0,0,.427.054.22.22,0,0,0,.023-.177l-.379-1.389,1.591,1.209a.216.216,0,0,0,.2.036.23.23,0,0,0,.142-.108.221.221,0,0,0,.023-.177l-.548-2.008a.236.236,0,0,0-.289-.165.221.221,0,0,0-.14.11.23.23,0,0,0-.021.178l.379,1.39q-.374-.281-.67-.505l-.5-.382-.425-.324a.244.244,0,0,0-.088-.04.192.192,0,0,0-.1,0,.224.224,0,0,0-.151.119.239.239,0,0,0-.021.172Z" transform="translate(-65.984 -235.137)" fill="#20588f"/>
        <path id="Path_425" data-name="Path 425" d="M133.319,264.131a.252.252,0,0,0,.335.125.238.238,0,0,0,.131-.141.248.248,0,0,0-.009-.193l-.861-1.888a.248.248,0,0,0-.14-.134.238.238,0,0,0-.192.007.252.252,0,0,0-.126.335Z" transform="translate(-113.751 -224.941)" fill="#20588f"/>
        <path id="Path_426" data-name="Path 426" d="M167.719,232.466l-.448.122-3.065.836-.448.122a1.2,1.2,0,0,0-.843,1.476l.906,3.322a1.2,1.2,0,0,0,1.476.843l3.962-1.081a1.2,1.2,0,0,0,.843-1.476l-.906-3.322a1.2,1.2,0,0,0-1.476-.843Zm-3.344,6.071a.785.785,0,0,1-.159-.3l-.906-3.322a.788.788,0,0,1,.051-.55l.127-.009a.975.975,0,0,0,.033.268l.7,2.57a.97.97,0,0,0,.269.448Zm-.458-4.022a.566.566,0,0,1,.4-.695l3.065-.836a.566.566,0,0,1,.695.4l.7,2.57a.566.566,0,0,1-.4.695l-3.065.836a.566.566,0,0,1-.695-.4Zm5.233,3.2-3.962,1.081a.786.786,0,0,1-.431-.005l.119-.919a.97.97,0,0,0,.545.01l3.065-.836a.97.97,0,0,0,.4-.218l.568.73A.786.786,0,0,1,169.15,237.711Zm.542-.515-.563-.724a.97.97,0,0,0,.041-.629l-.7-2.57a.968.968,0,0,0-.107-.247l.113-.056a.787.787,0,0,1,.323.448l.906,3.322a.786.786,0,0,1-.012.457Z" transform="translate(-139.894 -199.638)" fill="#20588f"/>
        <path id="Path_427" data-name="Path 427" d="M177.839,242.963l1.425,1.776a.228.228,0,0,0,.241.074.234.234,0,0,0,.111-.067.2.2,0,0,0,.055-.118l.323-2.252a.213.213,0,0,0,0-.1.23.23,0,0,0-.284-.163.228.228,0,0,0-.11.067.231.231,0,0,0-.056.118l-.234,1.8-1.11-1.428a.2.2,0,0,0-.109-.073.246.246,0,0,0-.132,0,.214.214,0,0,0-.136.111.232.232,0,0,0-.022.176A.257.257,0,0,0,177.839,242.963Z" transform="translate(-152.706 -207.953)" fill="#20588f"/>
        <path id="Path_428" data-name="Path 428" d="M213.308,218.061l3.962-1.081a1.2,1.2,0,0,0,.843-1.476l-.906-3.322a1.2,1.2,0,0,0-1.476-.843l-.449.122-3.065.836-.449.122a1.2,1.2,0,0,0-.843,1.476l.906,3.322A1.2,1.2,0,0,0,213.308,218.061Zm3.854-1.477-3.962,1.081a.785.785,0,0,1-.431-.005l.119-.919a.97.97,0,0,0,.545.01l3.065-.836a.969.969,0,0,0,.4-.218l.568.73A.782.782,0,0,1,217.162,216.584Zm-.674-4.742a.788.788,0,0,1,.323.448l.906,3.322a.787.787,0,0,1-.013.457l-.563-.723a.97.97,0,0,0,.041-.629l-.7-2.57a.965.965,0,0,0-.107-.247Zm-4.162.852,3.065-.836a.566.566,0,0,1,.695.4l.7,2.57a.566.566,0,0,1-.4.695l-3.065.836a.566.566,0,0,1-.695-.4l-.7-2.57A.566.566,0,0,1,212.325,212.694Zm-.953.544.127-.009a.976.976,0,0,0,.033.267l.7,2.57a.969.969,0,0,0,.269.448l-.116.9a.784.784,0,0,1-.159-.3l-.906-3.322a.787.787,0,0,1,.051-.551Z" transform="translate(-181.133 -181.492)" fill="#20588f"/>
        <path id="Path_429" data-name="Path 429" d="M227.363,224.349a.249.249,0,0,0,.307.176l1.362-.372a.23.23,0,0,0,.143-.108.221.221,0,0,0,.023-.177.236.236,0,0,0-.289-.165l-1.124.307-.145-.533.595-.162a.234.234,0,0,0,.054-.427.22.22,0,0,0-.177-.024l-.595.162-.141-.515,1.07-.292a.236.236,0,0,0,.165-.289.22.22,0,0,0-.11-.14.229.229,0,0,0-.178-.021l-1.308.357a.245.245,0,0,0-.152.115.236.236,0,0,0-.024.188Z" transform="translate(-194.828 -190.477)" fill="#20588f"/>
        <path id="Path_430" data-name="Path 430" d="M57.109,23.258l-1.427-3.134a1.2,1.2,0,0,0-1.592-.6l-.423.193-2.891,1.317-.2.091a22.508,22.508,0,0,0-.568-3.831l-1.027.677a1.911,1.911,0,0,1-.665,1.776,20.7,20.7,0,0,1,.188,2.775c0,.209,0,.417-.011.625a1.193,1.193,0,0,0-.646-.005l-.448.122-3.065.836-.448.122a1.2,1.2,0,0,0-.843,1.476l.906,3.322a1.2,1.2,0,0,0,1.476.843l1.913-.522A20.422,20.422,0,0,1,20.624,41.495l2.114-.963a1.2,1.2,0,0,0,.6-1.592l-1.427-3.134a1.2,1.2,0,0,0-1.592-.6l-.423.193L17,36.721l-.423.193a1.2,1.2,0,0,0-.6,1.592l.276.607q-.662-.475-1.289-1.006a1.2,1.2,0,0,0-.747-.663c-.176-.164-.35-.33-.521-.5a20.661,20.661,0,0,1-2.036-2.369,114.137,114.137,0,0,0,16.279-7.911c3.022-1.707,5.795-3.328,8.219-4.776a1.445,1.445,0,0,1-.158-.022,2.462,2.462,0,0,1-1.916-2.9c0-.006,0-.011,0-.016A122.755,122.755,0,0,1,14.142,30.36a39.371,39.371,0,0,1-4.124,1.566A20.39,20.39,0,0,1,42.532,8.111c.154.154.3.31.452.468L44.774,7.4A22.5,22.5,0,0,0,7.926,32.467c-2.486.5-3.817.155-4.529-.362-1.705-1.24-.725-4.3-.715-4.326a.776.776,0,0,0-1.453-.541C-.43,31.268-.409,33.9,1.292,35.276a4.932,4.932,0,0,0,3.182.908,18.271,18.271,0,0,0,5.1-.913,22.577,22.577,0,0,0,2.153,2.66l-1.682.459-.448.122a1.2,1.2,0,0,0-.843,1.476l.906,3.322a1.2,1.2,0,0,0,1.476.843l3.962-1.081a1.2,1.2,0,0,0,.843-1.476l-.05-.181A22.506,22.506,0,0,0,49.793,28.585a1.2,1.2,0,0,0,.434-1.274l-.068-.25a22.513,22.513,0,0,0,.371-2.54l.654,1.435a1.2,1.2,0,0,0,1.592.6l3.737-1.7a1.2,1.2,0,0,0,.6-1.592Zm-34.54,16.9-3.737,1.7a.786.786,0,0,1-.426.064L18.374,41a.969.969,0,0,0,.54-.077L21.8,39.605a.967.967,0,0,0,.357-.279l.677.629a.787.787,0,0,1-.271.2Zm-1.426-4.572a.787.787,0,0,1,.391.391l1.427,3.134a.787.787,0,0,1,.061.453l-.672-.624a.97.97,0,0,0-.06-.628l-1.1-2.424a.969.969,0,0,0-.145-.227Zm-3.971,1.508,2.891-1.317a.566.566,0,0,1,.749.28l1.1,2.424a.567.567,0,0,1-.28.749l-2.891,1.317a.567.567,0,0,1-.749-.28l-1.1-2.424a.566.566,0,0,1,.28-.75Zm-.853.69.123-.028a.964.964,0,0,0,.076.259l1.1,2.424a.966.966,0,0,0,.337.4l.029.9a.785.785,0,0,1-.205-.272l-1.427-3.135a.787.787,0,0,1-.038-.551ZM10.211,43.5a.785.785,0,0,1-.159-.3l-.906-3.322a.787.787,0,0,1,.051-.55l.127-.009a.976.976,0,0,0,.034.268l.7,2.57a.969.969,0,0,0,.269.448Zm-.458-4.022a.566.566,0,0,1,.4-.695l3.065-.836a.566.566,0,0,1,.695.4l.7,2.57a.566.566,0,0,1-.4.695l-3.065.836a.566.566,0,0,1-.695-.4Zm5.233,3.2-3.962,1.081a.786.786,0,0,1-.431-.005l.119-.919a.969.969,0,0,0,.545.01l3.065-.836a.967.967,0,0,0,.4-.218l.568.73A.787.787,0,0,1,14.986,42.675Zm.542-.515-.563-.724a.97.97,0,0,0,.041-.629l-.7-2.57a.973.973,0,0,0-.107-.247l.113-.056a.787.787,0,0,1,.323.448L15.54,41.7a.786.786,0,0,1-.012.457ZM49.819,27.876l-.563-.724a.97.97,0,0,0,.041-.629l-.7-2.57a.964.964,0,0,0-.107-.247l.113-.056a.787.787,0,0,1,.323.448l.906,3.322a.786.786,0,0,1-.012.457ZM44.5,29.217a.785.785,0,0,1-.159-.3l-.906-3.322a.787.787,0,0,1,.051-.55l.127-.009a.977.977,0,0,0,.034.268l.7,2.57a.969.969,0,0,0,.269.448ZM44.043,25.2a.566.566,0,0,1,.4-.695l3.065-.836a.566.566,0,0,1,.695.4l.7,2.57a.566.566,0,0,1-.4.695l-3.065.836a.566.566,0,0,1-.695-.4Zm1.271,4.277a.785.785,0,0,1-.431-.005L45,28.547a.97.97,0,0,0,.545.01l3.065-.836a.968.968,0,0,0,.4-.218l.568.73a.785.785,0,0,1-.3.158Zm6.243-3.686-.968-2.126q.016-.312.023-.626l.784,1.722a.969.969,0,0,0,.337.4l.029.9A.788.788,0,0,1,51.557,25.786Zm.212-1.2-1.1-2.424a.566.566,0,0,1,.28-.749l2.891-1.317a.566.566,0,0,1,.749.28l1.1,2.424a.566.566,0,0,1-.28.749l-2.891,1.317a.566.566,0,0,1-.749-.28Zm4.573-.109-3.737,1.7a.784.784,0,0,1-.426.064l-.03-.926a.968.968,0,0,0,.54-.077l2.891-1.317a.967.967,0,0,0,.357-.279l.677.629a.786.786,0,0,1-.271.2Zm.453-.595-.672-.624a.97.97,0,0,0-.061-.628l-1.1-2.424a.972.972,0,0,0-.145-.227l.1-.074a.787.787,0,0,1,.391.39l1.427,3.134a.787.787,0,0,1,.061.453Z" transform="translate(0 -0.028)" fill="#20588f"/>
        <path id="Path_431" data-name="Path 431" d="M368.506,152.3a.242.242,0,0,0,.192-.007l1.285-.585a.23.23,0,0,0,.123-.13.221.221,0,0,0-.005-.178.236.236,0,0,0-.312-.117l-1.061.484-.229-.5.561-.255a.234.234,0,0,0-.015-.43.221.221,0,0,0-.178.005l-.561.255-.221-.486,1.01-.46a.236.236,0,0,0,.116-.312.221.221,0,0,0-.131-.121.23.23,0,0,0-.179.008l-1.234.562a.244.244,0,0,0-.132.138.236.236,0,0,0,.007.19l.825,1.812A.242.242,0,0,0,368.506,152.3Z" transform="translate(-315.669 -128.367)" fill="#20588f"/>
        <path id="Path_432" data-name="Path 432" d="M258.516,191.861l3.548-2.068a1.2,1.2,0,0,0,.433-1.643l-1.733-2.975a1.2,1.2,0,0,0-1.643-.433l-.4.234-2.745,1.6-.4.234a1.2,1.2,0,0,0-.433,1.643l1.734,2.975A1.2,1.2,0,0,0,258.516,191.861Zm3.341-2.422-3.548,2.067a.784.784,0,0,1-.418.106l-.123-.918a.97.97,0,0,0,.529-.131l2.745-1.6a.969.969,0,0,0,.327-.313l.737.558a.785.785,0,0,1-.249.23Zm-1.876-4.407a.787.787,0,0,1,.428.349l1.734,2.975a.788.788,0,0,1,.106.445l-.731-.554a.97.97,0,0,0-.123-.619l-1.341-2.3a.968.968,0,0,0-.167-.212Zm-3.8,1.9,2.745-1.6a.567.567,0,0,1,.774.2l1.341,2.3a.566.566,0,0,1-.2.774l-2.745,1.6a.566.566,0,0,1-.774-.2l-1.341-2.3a.566.566,0,0,1,.2-.774Zm-.78.772.12-.041a.971.971,0,0,0,.1.25l1.341,2.3a.968.968,0,0,0,.376.364l.12.9a.786.786,0,0,1-.231-.25l-1.734-2.975a.787.787,0,0,1-.093-.545Z" transform="translate(-219.005 -158.542)" fill="#20588f"/>
        <path id="Path_433" data-name="Path 433" d="M271.036,200.794a.243.243,0,0,0,.337.089.247.247,0,0,0,.116-.15.232.232,0,0,0-.024-.189l-.4-.681.591-.344a.707.707,0,0,0,.061.042l.145.1c.057.039.12.081.19.125l.2.128.159.106q.067.045.086.056a.226.226,0,0,0,.126.041.242.242,0,0,0,.239-.18.229.229,0,0,0-.023-.181.313.313,0,0,0-.072-.071q-.056-.045-.134-.1l-.165-.113-.172-.114q-.084-.055-.151-.1l-.1-.064a.619.619,0,0,0,.135-.377.836.836,0,0,0-.348-.653.645.645,0,0,0-.286-.1.794.794,0,0,0-.315.034,1.513,1.513,0,0,0-.322.142l-.8.466a.242.242,0,0,0-.089.337Zm.163-2.192a.384.384,0,0,1,.247-.055.269.269,0,0,1,.2.145.256.256,0,0,1,.025.243.4.4,0,0,1-.169.183l-.645.376-.3-.516Z" transform="translate(-231.893 -170.125)" fill="#20588f"/>
        <path id="Path_434" data-name="Path 434" d="M321.291,175.779a.847.847,0,0,0,.327.155,1.7,1.7,0,0,0,.384.044q.2,0,.373.007a1.27,1.27,0,0,1,.3.039.2.2,0,0,1,.154.146.185.185,0,0,1-.02.154.4.4,0,0,1-.117.117.807.807,0,0,1-.159.082,1.56,1.56,0,0,1-.151.051,1.508,1.508,0,0,1-.2.041,1.441,1.441,0,0,1-.377,0,1.719,1.719,0,0,1-.2-.038.216.216,0,0,0-.249.111.228.228,0,0,0-.023.173.213.213,0,0,0,.1.127.589.589,0,0,0,.188.071,1.366,1.366,0,0,0,.236.027,2.152,2.152,0,0,0,.248-.006q.121-.01.225-.027a1.646,1.646,0,0,0,.165-.033,1.976,1.976,0,0,0,.347-.131,1.074,1.074,0,0,0,.292-.206.7.7,0,0,0,.173-.287.665.665,0,0,0-.006-.378.627.627,0,0,0-.133-.26.608.608,0,0,0-.205-.149.922.922,0,0,0-.257-.069q-.141-.018-.289-.024H322.3c-.05,0-.1,0-.164,0s-.12-.006-.183-.012a.959.959,0,0,1-.175-.032.5.5,0,0,1-.136-.06.169.169,0,0,1-.051-.238.379.379,0,0,1,.117-.1.759.759,0,0,1,.157-.071q.084-.027.141-.042a1.584,1.584,0,0,1,.318-.054,2.3,2.3,0,0,1,.322,0,.25.25,0,0,0,.091-.006.236.236,0,0,0,.165-.289.2.2,0,0,0-.073-.112.288.288,0,0,0-.123-.052,1.086,1.086,0,0,0-.194-.014q-.108,0-.222.01t-.222.03q-.109.02-.192.042a2.117,2.117,0,0,0-.327.12,1.114,1.114,0,0,0-.286.187.645.645,0,0,0-.175.265.582.582,0,0,0,0,.353A.622.622,0,0,0,321.291,175.779Z" transform="translate(-275.762 -149.827)" fill="#20588f"/>
        <path id="Path_435" data-name="Path 435" d="M242.221,47.627a.913.913,0,0,0-.666-.284.936.936,0,0,0-.5.146l-3.251,1.81-4.445,2.26a.436.436,0,0,0-.041.024,1.917,1.917,0,0,0-.218,3.033.921.921,0,0,0,.612.233.933.933,0,0,0,.173-.016l1.386-.265.372.258-.9,2.111a.424.424,0,0,0-.025.081,1.474,1.474,0,0,0,1.147,1.737.424.424,0,0,0,.085.009l2.4,0,.14.678-.788,1.17a.926.926,0,0,0-.11.807,1.916,1.916,0,0,0,2.874.992.44.44,0,0,0,.039-.028l3.833-3.206,2.945-2.28a.921.921,0,0,0,.271-1.213l-.132-.23,5.286-3.49a.426.426,0,0,0,.109-.1l.017-.023.021-.019a1.445,1.445,0,0,0,.391-.591l1.7-4.828a1.474,1.474,0,0,0-1.295-1.961l-5.107-.332c-.032,0-.063,0-.094,0a1.457,1.457,0,0,0-.6.131l-.026.012-.028.006a.424.424,0,0,0-.139.059L242.384,47.8Zm4.461,1.477a1.692,1.692,0,1,1,.245,1.272,1.692,1.692,0,0,1-.245-1.272Z" transform="translate(-199.663 -37.888)" fill="#20588f"/>
      </g>
    </g>
  </g>
</svg>
